<?xml version="1.0" encoding="utf-8"?>
<!-- Generator: Adobe Illustrator 23.0.3, SVG Export Plug-In . SVG Version: 6.00 Build 0)  -->
<svg version="1.1" id="Layer_1" xmlns="http://www.w3.org/2000/svg" xmlns:xlink="http://www.w3.org/1999/xlink" x="0px" y="0px"
	 viewBox="0 0 300 300" style="enable-background:new 0 0 300 300;" xml:space="preserve">
<style type="text/css">
	.st0{fill:#FFFFFF;}
	.st1{fill:#231F20;}
	.st2{fill:#008041;}
	.st3{fill:#A88D5E;}
	.st4{fill:#F8A87F;}
	.st5{fill:#A63732;}
</style>
<g>
	<path class="st0" d="M283.9,140.7c0-35.7-13.9-69.2-39.1-94.4C223.1,24.6,195.1,11.2,164.9,8c-0.7-0.7-1.5-1.3-2.4-1.9
		c-10.7-6.9-19.6-1.8-25.8,1.2c-0.4,0.2-1,0.5-1.5,0.8c-11.6,1.3-22.8,4.2-33.4,8.3c-1.2-1.9-2.7-3.6-4.3-5.2
		c-6.4-6.5-15-10-24.1-10c-18.8,0-34.1,15.3-34.1,34.2c0,7.9,2.7,15.4,7.6,21.4C28.2,79.7,17,108.9,17,140.7
		c0,35.6,13.9,69.2,39.1,94.4c12.3,12.3,26.6,21.9,42.2,28.5c-0.9,7.1,0.3,11.8,1.6,13.8c-2,1.6-2.8,2.7-3.1,4.5
		c-3.1,4.2,4.4,9.6,7.5,12c6.4,4.9,9.7,4,14.6,3.8c6.1-0.3,11.9-7.4,15.2-12.1c6.6-0.9,7.8,0.1,8,0.9c2.1-0.3,5-0.8,8.9-2.5
		c8.9-3.8,6.4-8.4,5.5-9.2c-0.2-0.2-0.4-0.5-0.6-0.9c21.2-0.8,41.4-6.6,59.5-16.7c0.6,0.7,1.3,1.5,2,2.5c2,2.9,3,12.3,3.4,17.1
		s1.2,8.1,3.6,15.8c2.4,7.6,3.3,2.1,3.4,0c0.1-2.1,0.5-9.5,0.2-14.9c-0.3-5.4-0.4-13.1,0.6-16.4c1-3.3-0.8-4.1-1.3-4.7
		c-0.5-0.6,0-0.8-1.3-5.1c-0.1-0.2-0.1-0.5-0.2-0.7c6.8-4.7,13.2-10,19.1-15.9C270,209.9,283.9,176.4,283.9,140.7"/>
	<g>
		<polygon class="st0" points="227.8,256.3 227.8,256.3 227.8,256.3 227.8,256.3 		"/>
	</g>
	<path class="st1" d="M283.9,140.7c0-35.7-13.9-69.2-39.1-94.4C223.1,24.6,195.1,11.2,164.9,8c-0.7-0.7-1.5-1.3-2.4-1.9
		c-10.7-6.9-19.6-1.8-25.8,1.2c-0.4,0.2-1,0.5-1.5,0.8c-11.6,1.3-22.8,4.2-33.4,8.3c-1.2-1.9-2.7-3.6-4.3-5.2
		c-6.4-6.5-15-10-24.1-10c-18.8,0-34.1,15.3-34.1,34.2c0,7.9,2.7,15.4,7.6,21.4C28.2,79.7,17,108.9,17,140.7
		c0,35.6,13.9,69.2,39.1,94.4c12.3,12.3,26.6,21.9,42.2,28.5c-0.9,7.1,0.3,11.8,1.6,13.8c-2,1.6-2.8,2.7-3.1,4.5
		c-3.1,4.2,4.4,9.6,7.5,12c6.4,4.9,9.7,4,14.6,3.8c6.1-0.3,11.9-7.4,15.2-12.1c6.6-0.9,7.8,0.1,8,0.9c2.1-0.3,5-0.8,8.9-2.5
		c8.9-3.8,6.4-8.4,5.5-9.2c-0.2-0.2-0.4-0.5-0.6-0.9c21.2-0.8,41.4-6.6,59.5-16.7c0.6,0.7,1.3,1.5,2,2.5c2,2.9,3,12.3,3.4,17.1
		s1.2,8.1,3.6,15.8c2.4,7.6,3.3,2.1,3.4,0c0.1-2.1,0.5-9.5,0.2-14.9c-0.3-5.4-0.4-13.1,0.6-16.4c1-3.3-0.8-4.1-1.3-4.7
		c-0.5-0.6,0-0.8-1.3-5.1c-0.1-0.2-0.1-0.5-0.2-0.7c6.8-4.7,13.2-10,19.1-15.9C270,209.9,283.9,176.4,283.9,140.7"/>
	<path class="st2" d="M118.9,265.2c5-0.2,11.9-1.7,15-3.1c0.4,0.1,1.1,0.5,2.1,0.9c0.4-3.3-1.7-10.2-2.9-13.3
		c-0.8-2.1-1.5-3.5-2.5-5.7c-2.8-0.5-6.2-2-8.7-3c0,2,0.4,7.1,0.8,10.5c-1,0.1-2.5,0.2-4.2,0.2C118.7,255.4,119.1,262.1,118.9,265.2
		"/>
	<path class="st2" d="M212.2,254.3c-0.9-0.9,1.1-3.8,2.1-9.2c0.9-5.4,1-14.3-2.9-19.4c-1.9-2.5-2.8-4-3.1-5.1
		c-12.2,8.9-26.2,14.8-41.1,17.3c-0.2,0.3-0.4,0.6-0.5,0.8c-2.2,2.8-6.4,6.8-9.5,8.5c-3.1,1.7-6.7,2.9-8.7,3.5
		c-0.4,3.3-1,10.7-0.1,13.2c0.3,0.9,4.1,3.2,5.5,5.7c0.1,0.3,0.3,0.5,0.4,0.8c21.1-0.6,40.9-6.2,58.3-15.8L212.2,254.3"/>
	<path class="st2" d="M242.1,49c-20.3-20.3-46.2-33.1-74.3-36.8c2.2,4.4,2.6,9.6,2.8,12.8c4-1.8,7.1-2.7,8.8-5.4
		c1.7-2.7,3.9-2.2,5.4-0.2c1.4,2,1.4,4.4-2.4,6.8c-3.8,2.4-6.6,3.5-7.4,3.9c-0.8,0.4-0.1,1.1,0.8,2.7c0.9,1.5,3.3,5.4,3.7,13.4
		l0,0.2c15.2,4.7,29.1,13,40.6,24.5c18.6,18.6,28.9,43.4,28.9,69.7c0,15.1-3.4,29.7-9.8,43c0.8,0.4,2,3.4,2.4,7.4
		c0.2,2.1,0.1,4.3-0.5,5.8c-0.6,1.4-5.5,8.8-7.9,10.9c-0.9,0.8-3.1,0.7-4-0.6c-0.9-1.3-1-0.6-1.8,0.1c-0.7,0.7-3.2,4.3-3.8,5.3
		c-0.6,0.9-2.7,1.9-1.3,5.6c1.3,3.7,2.9,6.5,2.4,8.6c-0.5,2.1-0.7,2.7,2.1,5.1c2.8,2.4,2.7,5.3,1.4,7.1c-0.8,1.2-2,4.3-2.5,7.5
		c32.9-23.5,54.5-62.1,54.5-105.6C280.1,106.1,266.6,73.5,242.1,49"/>
	<path class="st2" d="M93.2,236.5c-0.4-3.5-0.9-9.8,1.6-14.3c-5-3.4-9.7-7.3-14.1-11.7c-18.6-18.6-28.9-43.4-28.9-69.7
		c0-28.2,11.9-53.7,30.9-71.7c0.2-0.4,0.4-0.7,0.7-1.1c-3.2,1-6.6,1.5-10.1,1.5c-9.1,0-17.6-3.5-24.1-9.9
		c-18.5,22.9-28.5,51.3-28.5,81.2c0,34.6,13.5,67.2,38,91.7c11.7,11.7,25.3,20.9,40.1,27.4c0.6-2.8,1.4-5.8,2.7-9.1
		c1.1-3-0.6-9.9-3.5-13.5C96.5,236.8,94.5,236.6,93.2,236.5"/>
	<path class="st2" d="M127.6,13c-8.2,1.4-16.2,3.7-23.9,6.6c2.5,4.8,3.8,10.1,3.8,15.7c0,7.3-2.3,14.3-6.6,20.1
		c7.1-4.2,14.8-7.5,23-9.7c0.5-0.5,1.1-1,1.6-1.5c-3-5-7-12.9-3.5-23.6C123,17.6,125.1,15.1,127.6,13"/>
	<path class="st0" d="M179.4,52.1c2.9,1.4,6.1,4.6,4.8,10.4c-0.5,2.4-2.5,4.7-2.7,5.6c-0.3,1.5-3.6,4.2-4.6,6.2
		c-1,2-1.2,3.8-0.9,4.7l0,0c1.6,1.6,5.4,3.6,7.4,4.3c1.6,0.6,1.5,1,0.8,2.1c1.1,0.1,1.7,0.8,2.8,2.1c1.1,1.3,4.1,0.5,6-0.4
		c1.9-0.9,4.2-1.2,6.1,1c1.9,2.3,4.6,6.5,6,10.4c1.3,3.9,2.8,7.1,3.2,7.7c0.4,0.6-1.4,12-2,16.5c-0.5,4.5-0.9,6.5-1,7.2
		c-0.1,0.7,2.9-2.6,3,1.3c0.1,3.1,1.5,13.2,3.2,20.6c0.4,1.9,0.9,3.6,1.3,5c1.2,0.2,2.3,2.7,3,6.5c0.7,3.8,2.3,6.2,2.4,8
		c0.1,1.9,0.6,2.2,1.2,2.5c0.6,0.3,0.4,1.2-1.4,3.4c0.4,0.3,1,0.9,1.4,1.3c0.5-0.5,2-2.2,2-2.2s5.7,2.3,6.9,2.7
		c1.2,0.4,2.7-2.6,6.4-1c1,0.4,2.1,1.8,2.9,3.2c5.8-12.4,9-26.1,9-40.7c0-25.7-10-49.9-28.2-68.1c-11.1-11.1-24.4-19.2-39-23.8
		C179.5,50.3,179.4,51.6,179.4,52.1"/>
	<path class="st0" d="M209.3,214.4c-1.4-0.7-2.4,0.3-3.1-5.4c-0.2-1.6-1.5-3.8-2.6-4.9c-1-1-1.2-3-0.6-4.6c0.8-2.6,1-5,0.9-7
		c-0.1-2.1,0.3-4.6,3.2-5.9c-1-1.1-1.5-2.6-1.9-3.7c-4.2-1.4-5.1-1.5-5.9-3.6c-1.4-3.4-2.3-8.5-2.8-11.2c-0.2-1.3-0.4-2.6-0.4-3.7
		c-1.4-2.6-4.4-8.3-6.7-12.5c-0.9-1.6-1.6-3-2.2-4c-2.1-3.6,0-8.4,1-11.1c1-2.8,1.9-5.3,0.9-8c-0.9-2.8-0.9-3.4-1.1-4.5
		c-0.2-1.1-1.1-2.6-2.4,1.3c-1.2,3.9-3.6,9.7-5,15.7c-0.8,3.4-1.3,7.1-1.1,10.7c0.1,2.7,0.7,5.4,1.8,7.8c2.7,5.6,5.9,10.7,5.5,13.8
		c-0.4,3.1-1.1,3.2-1.1,3.7c-0.5,6-3.1,17.4-4.4,20.7c-1.3,3.3-6.6,15.3-7.7,20.3c-0.9,3.9-3.3,12.2-5.3,17.1
		c15.4-2.9,29.6-9.5,41.5-18.9C210.2,215.6,210.1,214.8,209.3,214.4"/>
	<path class="st0" d="M94.6,79c1.1,1.5,2.6,2.8,4.6,3.8c5.1,2.6,6.1,4.4,6.1,8.9c0,4.4,0.8,13.5,2.3,15.1c0.9-0.9,2-2.3,2.2-2.7
		c1.4,2.7,4.4,7.6,9,10.7c0.3,0.2,0.2,1.3,0.9,1.5c1.5,0.4,11.6,2,11.9,4c2.1-2.1,5.4-7.2,6-9c0.6-1.8,4.2-7.3,6.9-10.4
		c0-1.2,0-2,0.1-2.3c-0.7,0.6-1.9,2.2-3.5,2.9c-1.6,0.7-7.4,3.2-11.6,5.3c-1.4,0.7-4,1.5-5.1-6c-1-7.5,0-11.5,0.7-13.2
		c0.7-1.8,2.1-3.3,4.6-2.6c2.6,0.7,6.7,2.3,7.8,2.3c0.2-0.8,0.9-2.4-1.9-2.7c-2-0.2-7.2-1.7-10.1-5.7c-1.2-1.6-2-3.6-2.1-6.2
		c-5.9,0.9-19.4,2.7-22.4,3.4c-3,0.7-5.5,1.3-6.5-5.5c-0.4-2.9-1.1-6.9,0.9-5.5c1.6-1.2,3.9-2.7,7.9-2.1c0.7,0.1,1.7,0.7,1.9,1.3
		c0.2,1-0.2,2.6-0.7,4.2c-0.9,2.8-2.6,4.7,3,3.5c5.9-1.4,13.4-2.5,15.3-2.9c0.3-2,1.9-5.1,3.9-7.4c2-2.3,2.3-4.1,2.4-4.9
		c0.1-0.7-0.6-0.9-1.5,0c-1.1,1-4.5,3.1-7.7,2.3c-1.2-0.3-2.8-2.7-3.6-4c0.7-1.4,2.4-3.9,4.5-6.3c-11,3.5-21.3,9-30.4,16.3
		c-0.1,1.1,0.1,3.8,0.8,6.7C91.8,74,92.8,76.7,94.6,79"/>
	<path class="st0" d="M101.8,219.9c4.2-1.6,7.6-1.6,10.8,2.8c0.9,1.2,1.6,4.9,9.6,1.6c-4.2-5.1-6.8-11-9.1-19.1
		c-3.7-12.7-11.9-27.1-8.9-33.7c-1.7-1.7-3.8-8-6-7.3c-1.5,0.5-3.5,0.5-1.9-4.3c0.7-2.2,2-4.8,4.3-8c2.8-3.9,7.3-8.5,14.5-14.1
		c0.6-0.5,0.7-0.9,0.3-1.3c-0.7-0.7-1.4-1.6-2.2-2c-0.7-0.4-1.4-0.2-2.1,0.4c-0.6,0.6-1.6,1.3-2.3,1.8c-0.6,0.4-5.6-4.4-8.2-7.9
		c-2.6-3.5-5.3-4.6-6.1-5.1c1-1.1,3.4-3.6,2.5-3.3c-1.5,0.5-4.3,0.9-7-2.1c-3.4-3.6-2.1-5.5-2.8-6c-0.7-0.5-4.4,0.3-7.2-4
		c-2.8-4.3-3.9-6.2-1.7-9.3c1.1-1.5,1.6-2.3,1.2-4.2c-0.3-2,0-3.2,2.6-5.7c2.6-2.5,4.1-4.8,5.3-4.5c0.9,0.2-1.7-3.1-3.3-5.6
		c-0.4-0.7-0.8-1.3-0.9-1.7c-0.4-1-1.1-2.7-1.2-4.6c-18.1,18.2-28.1,42.3-28.1,68c0,25.7,10,49.9,28.2,68.1
		c4.3,4.3,8.9,8.1,13.7,11.4C98.2,218,100.7,218.9,101.8,219.9"/>
	<path class="st3" d="M131.5,264.8c0.7-0.3,1.6-0.7,2-0.4c0.4,0.3,2.9,2.1,4.4,3.4c1.5,1.3,2.1,1.7,0.8,2.5
		c-1.2,0.7-2.4,1.4-2.2,0.8c0.2-0.6,0.5-1.5-0.3-2.4c-0.8-0.8-2.9-2.4-3.7-3.1C132,265.2,131.5,264.8,131.5,264.8"/>
	<path class="st3" d="M125.7,266.5c-0.5,0.5-0.6,1.2,0,1.9c0.6,0.6,4.1,3.5,4.6,4.1c0.6,0.6,1.4,0.8,2.3,0.6
		c0.9-0.2-1.1,1.1-1.9,1.3c-0.8,0.2-1.6,0.2-2.5-0.6c-0.8-0.8-5.5-5.2-6.4-6c-0.9-0.9,0.3-0.9,1.1-1
		C123.8,266.6,124.6,266.6,125.7,266.5"/>
	<path class="st3" d="M119.9,240.1c0.3,0.9,0.4,1.8-1,1.6c-1.4-0.2-7.5-0.8-9.3-0.8c-0.4,0-0.3-1-0.9-0.6c-0.6,0.4-0.4,1.3-0.4,2.4
		c0,1-0.1,1.7,0,2.4c0,1.1,0.7,2.6,3.5,2.7c2.8,0.2,5.4-0.2,6.2-0.7c0.8-0.6,0-1.5-0.8-1.5c-0.8,0-5.4,0.4-6.4,0
		c-1-0.4-1.6-1.5-0.9-2c0.8-0.6,2.4,0.2,4,0.2c1.6,0,3.3-0.4,3.7-0.2c0.4,0.3,1,0.2,1,2.1c0,0.4,1,0.6,1.4,0.6
		c0.5,0,0.7,0.8,0.6,1.8c-0.1,1,0,1.2-1.8,1.2c-1.9,0-9.8-0.1-11-0.1c-0.5,0-0.5-0.4-0.6-1.3c0-0.9-0.4-7.4-0.5-7.9
		c-0.1-0.5,1.2-0.6,2.3-0.4c1.1,0.2,2.4,0.4,4.2,0.5c1.7,0.1,4.4,0.4,4.4,0.4s1.3,0.2,1.5-0.3C119.4,239.9,119.8,239.8,119.9,240.1"
		/>
	<path class="st4" d="M82.9,98.1c-1.3-0.4-2.4,1.1-3,2.4c-0.6,1.2-1.3,2.6,0.6,5.4c2,2.8,3.2,4.5,6.6,4.2c1.7-0.1,3.1-1.3,3.6-2.1
		c0.5-0.7,0.6,0.5-0.2,1.8c-0.8,1.2-1.4,4.1,0.1,6.1c1.5,2,4.7,3.6,9,1.1c4.2-2.5,6-5.5,6.7-6.8c0.7-1.3,0.7-2,0-2.8
		c-0.7-0.8-3.1-4.8-3.6-12.5c-0.3-4.6,0.5-7.6-2.4-9.3C97.4,84,90.8,80.1,90,72.4c-0.3-2.9-0.1-7.3-3-5c-2.9,2.4-2.9,4-3.2,5.8
		c-0.3,1.8,1.1,4.1,2.4,5.8c1.2,1.7,2.7,5.3,3.8,6.2c1.1,0.9,1.9,1.7,2.8,1.8c0.9,0.1,4.6,0.1,5.6,0.4c0.9,0.3,1.5,1.4-0.8,1.4
		c-2.3,0-5.8,0.6-7.3,0.8c-1.5,0.2-3,0.3-3.7,3.4c-0.7,3.1-1.8,6.7-1.9,7.8c-0.1,1.1-0.7,1.8-0.7,2.4c0,0.6,1.2,3.6,4,0.6
		c2.8-3,3.9-6,4.4-7.4c0.5-1.4,1.1-1.2,0.6,1c-0.5,2.3-0.7,7.9,0.4,9.9c1.2,2.1,3.5,4.3,6.5,2.8c0.6-0.3,1.6-0.8,2.5-0.7
		c0.8,0.1-0.2,1.5-0.9,2.2c-0.7,0.6-3.1,3.2-7.3-0.5c-1-0.9-2.5-3-2.8-5.6c-0.1-0.8-1.2-1.1-1.8-0.4c-0.5,0.7-3.3,3.3-5.3,1.4
		c-2-1.9-2.8-2.9-1.6-6.8C83,99.1,83.4,98.3,82.9,98.1"/>
	<path class="st4" d="M84.9,92.3c-0.4,1.3-0.8,3.1-1,3.7c-0.2,0.6-1.1,2-2,0.2c-0.8-1.8-0.8-3.1,0.5-4.4c0.4-0.4,1-1.2,1.4-0.8
		C84.3,91.4,85,92,84.9,92.3"/>
	<path class="st4" d="M89.6,87.6c-0.9,0.4-2.7,0.4-3.3,1.9c-0.4,0.9-2.1-0.1-1.2-1.2c0.8-1.1,1.4-1,2-1.3c0.5-0.3,0.7-1.2,1.8-0.7
		C89.8,86.7,90,87.4,89.6,87.6"/>
	<path class="st4" d="M157.6,36.5c-2.9,0.3-5.6,2.1-8.2,3.9c-2.7,1.9-12.4,10-14.7,11.7c2.4,1.2,3,3.7,2.2,7.8
		c-0.2,0.9,0,1.2,0.6,0.6c0.6-0.6,3.5-3.7,3.4-6.2c-0.1-2.5-1.2-3.9-1.4-4.2c-0.2-0.3,0.8-1.5,2,1c1.1,2.6,0.8,6.2-2.6,10.2
		c-3.4,4-6.1,3.9-7.5,4.6c-1.4,0.7-2.9,1.9-1.5,4c1.3,2.2,3.9,1.3,4.9,0.6c1-0.7,2.5-1.5,5.8-1.2c3.3,0.3,4.4-1.8,2.2-4
		c-0.7-0.7-2.6-2.4-0.3-2.4c1.3,0,3,3,3.9,3.8c0.9,0.8,3,1.1,5.8,1.3c2.8,0.2,7.1,1.2,7.1,3.9c0,1.6-0.9,2.1-2.1,0.8
		c-0.5-0.5-1.1,0.3-1.6,0.8c-1.8,1.8-6.2,6.5-9.4,7.3c-3.2,0.8-4.4-0.1-8.6-2.4c-4.2-2.3-8.1-4.5-9.3-5.3c-1.1-0.7-3.5-2.4-2.4,0.9
		c1.1,3.3,3.9,6.7,9.5,8.6c5.6,1.9,6.4,2.5,7.6,3.1c1.2,0.6,0.5,1.2-1.1,1c-1.4-0.2-3-1.4-1.8,1.3c1.2,2.8,3.1,5.8,8.8,5.1
		c5.7-0.7,5.8-1.9,9.4-7.8c0.6-1,1.2-0.3,0.8,2.4c2.8-1.3,4.3-1.8,6-2.2c1.6-0.4,5.9-1.9,8.8-7.1c1.4-2.7,2.2-3.6,2-6.4
		c-0.1-1,1.4-3.1,3-4.5c1.5-1.4,5.8-6.9,3.6-10.8c-2.2-3.9-5.8-2-7.5,0.9c-1.8,2.9-3.7,6.1-3.8,11c-1.2-0.4-2.5,0-3.1,1
		c-0.3,0.5-4.9-0.1-6.4,0.3c-1.5,0.4-2.1-0.5-0.4-2.7c1.6-2.2,7.5-10,7.1-15.9c-0.1-1.7,0.1-2.1,0.4-3.4c0.4-1.7,0.5-1.7-1.6-2.9
		c-1.4-0.8-1.5-2.9-1.7-4.5c-0.3-1.7-0.6-1.8-2.6-1.3C161.2,39.8,158.7,38.4,157.6,36.5"/>
	<path class="st4" d="M145.5,68.8c-0.6,1.3-2.1,2.5-5.7,2.1c-1.8-0.2-3.6-0.2-3.9,1.2c-0.2,1-1,0.9-2.2,0.9
		c-1.2-0.1-2.5-0.4-2.5,0.1c-0.1,0.4,5.1,3.4,6.8,4.2c1.7,0.8,4.2,2.6,6.2,2.4c2.7-0.3,5-1.6,9-5.8c1.6-1.7,2.9-2.6,1.4-3.4
		c-1.1-0.5-2.1-0.6-3.5-0.6C149.6,70,146.6,69.8,145.5,68.8"/>
	<path class="st4" d="M126.3,68.9c-1.4-0.1-1.5-1.1-0.6-2.6c0.9-1.6,1.8-3,3-3.9c0.2,0.7,0.6,1.5,1.2,1.9c-0.8,0.9-1.9,2-1.7,4.1
		L126.3,68.9z"/>
	<path class="st1" d="M149.4,53.7c0.3-1.4,0.1-2.6-2.1-0.9c-2-1.4-3.7-3.2-4.3-3.6c-0.6-0.4-0.9-1-0.2-1.8c0.7-0.7,2,0.5,1.7-1.6
		c-0.1-0.7,1.6-0.3,2-0.5c0.4-0.2-0.2-1.2,1.8-0.7c0.6,0.2,0.4-1,1.6-0.8c1.2,0.2,1.9,0.7,2.1-0.3c0.3-1,0.5-1.6,2.1-0.6
		c1.1,0.7,1.5,0.3,1.6-0.3c0.1-0.5,1.1-0.2,2,0.3c0.9,0.5,3.1,1.6,5.6,4.6c0.6,0.7,0.9,1.5,0.5,1.6c-0.4,0.1-0.9,0-1,0.8
		c-0.1,0.8-0.5,1.5-1,0.6c-0.5-0.9-0.6,0.2-0.9-0.8c-0.4-1-0.8,0.4-1.1-0.3c-0.3-0.9-0.7,0.1-1-0.6c-0.2-0.4-1.1,0.5-1.4-0.1
		c-0.3-0.6-1,0.6-1.5,0c-0.5-0.7-0.5,0.7-1.3,0.4c-0.8-0.3-0.5,0.8-1.3,0.4c-0.8-0.4-0.6,1-1.3,0.8c-0.8-0.2-0.7,0.2-0.9,1
		c-0.2,0.9-0.5,4.3-0.5,5.1c0.1,0.8,1.8,0.6,4.3,0.3c2.6-0.4,7.2-1.8,9.5-3.7c0.9-0.8,1.8-0.7,1.9-0.5c0.2,0.3-0.3,1.1-0.9,1.6
		c-0.7,0.6-2.4,2.4-6.4,3.1c-4,0.8-7.3,1.4-7.9,1.2c-0.7-0.2,0.3,1,1.4,0.7c0.6-0.1,2,2.3,4.1,2.3c1.8,0,4.4-2,5.1-2.5
		c0.7-0.6,3.3-1.8,1.6,0c-1.8,1.8-3.6,3.7-5.5,3.7c-1.9,0.1-4.7-0.6-6.7-1.9c-2-1.3-2.7-2.1-2.3-4.1
		C149.3,54.6,149.3,54.2,149.4,53.7"/>
	<path class="st1" d="M179.4,60.2c-1.2,0.9-1.9,1.1-2,2.6c-0.1,1.4-0.4,3.9-0.9,4.1c-0.7,0.3-0.6-1.3-0.8-0.8
		c-0.3,0.7-1.2,0.4-1.4-0.3c-0.1-0.3-2.7-0.3-0.6-3.3c1.9-2.7,3.3-4.1,4.6-4.7C179.6,57.2,181.9,58.4,179.4,60.2"/>
	<path class="st4" d="M229.9,182.8c-0.5-1.2,0.4-3.3,2.9-1.8c2.6,1.4,4.5,2.7,2.7,8.4c-1.9,5.7-3.2,9-3.9,11.3
		c-0.7,2.4-3.5,5.4-2.6,1.3c0.9-4,1.4-8.9,1-11.3c-0.7-4.5,0.7-4.3,0.3-6.3C230.2,183.7,230.1,183.2,229.9,182.8"/>
	<path class="st4" d="M239.7,187.7c0.7,2.2,1.5,7.3,0.3,9.4c-1.2,2.1-5.1,7.7-6.5,9.2c-1.4,1.4-2.6,0.8-1.7-0.7
		c0.9-1.5,2.2-3.6,2.2-4.3c0-0.7-0.1-1.5,1.1-3.9c1.2-2.4,3.4-10.3,3.6-10.9C239,185.7,239.5,187,239.7,187.7"/>
	<path class="st4" d="M213.1,206.7c-0.6-1.9-0.9-4.5-2-6.1c0.8-2.3,3.5-8.4,8.1-10.2c0.5-0.2,0.8-0.7,0.6-1.1
		c-0.2-0.4,0.6-0.7,1,0.7c0.4,1.4,1.1,5.6,1.1,5.6c0.2,0.9-0.2,1.6-0.4,2.9c-0.2,1.2-0.7,4-0.4,5.5c0.3,1.4,0.8,2.5,3.7,1.9
		c1.4-0.3,1.3-0.7,1.8-2c0.4-1.2,1.5-4.8,2-6.7c0.4-2,0.1-6.8-0.4-8c-0.4-1.2,0.2-5.4-0.2-6.2c-0.3-0.8-0.5-2.1-3.1-2.9
		c-2.6-0.8-3.3-1-5.1,0.7c-1.8,1.8-2.4,2.5-3.2,3.3c-0.8,0.8-2.9,0.1-1.1-1.5c1.8-1.7,3.4-3.3,3.9-3.8l-0.5-1.3h-0.9
		c-2.8,2.8-6.5,4.4-9,5c-0.9,0.2-2.7,0.3-1.4,2c0.3,0.4,0.4,1.5,1.1,1.1c0.7-0.4,1.9-2.3,2.9-1.4c1,0.8-0.2,2.8-1.4,3.7
		c-1.2,0.9-2.6,1.9-3.5,2.4c-0.9,0.5-1.4,1-1.3,2.7c0.1,1.6,0.2,4.6-0.7,6.9c-0.9,2.3-0.4,2.9,0.4,4.4c0.8,1.6,2.2,2.9,2.6,5.4
		c0.4,2.5,0.6,3.1,2.3,2.9c1.7-0.2,2.3-0.9,2.9-2L213.1,206.7z"/>
	<g>
		<path class="st5" d="M64.4,29.4c0.4,0.5,0.8,0.8,1.2,0.8c0.4,0,0.8-0.3,0.9-0.7c0.7-1.6,1.9-6.5,1.9-10.4c0-8.7,1.2-12,3.3-16
			l0.2-0.3l-0.4,0C61.3,3.3,52.4,8.6,46.8,16.4l-0.2,0.2l0.3,0.1C55.3,18.8,61.6,25.6,64.4,29.4z"/>
		<path class="st5" d="M63.9,34.4c0.3-0.4,0.4-0.8,0.4-1.1c0-0.9-0.8-1.5-1.2-2c-2.8-3.9-8.9-10.7-17.5-12.9l-0.1,0l-0.1,0.1
			c-3,4.9-4.7,10.7-4.7,16.8c0,2.7,0.3,5.3,0.9,7.8l0,0.1l0.1,0c1.2,0.1,2.3,0.2,3.4,0.2C58.5,43.4,62.9,35.6,63.9,34.4z"/>
		<path class="st5" d="M74.8,2.8l-0.1,0l-0.1,0.1c-2.3,3.6-3.7,6.5-4.6,16c-0.9,9.5-1.7,16.1-8.5,21.6c-4.8,3.9-14.1,5.2-18,5.2
			c-0.3,0-0.5,0-0.8,0l-0.3,0l0.1,0.3c1.6,4.6,4.1,8.6,7.4,12l0.1,0.1l0.1,0c9.8-3.3,17.1-7.7,26.5-16.4
			c9.4-8.8,14.2-17.8,15.6-21.2c0.3-0.6,0.6-1.3,0.9-1.9c0.2-0.3,0.3-0.5,0.4-0.6l0.1-0.1l0,0.1c0,0.3-0.1,1.1-0.4,2.2
			c-1.2,4.7-5.7,14.8-14.9,23.4c-9.2,8.6-17.3,13.1-27,15.5l-0.4,0.1l0.3,0.3c5.8,5.3,13.5,8.5,21.9,8.5c0.2,0,0.5,0,0.7,0h0.2
			l0-0.2c2-11.7,4.8-15.5,10.5-20.4c4-3.5,9.2-5.8,14.3-5.8c2,0,4,0.4,5.8,1.1l0.2,0.1l0.1-0.2c0.5-2.3,0.8-4.7,0.8-7.2
			C105.9,17.8,92.1,3.6,74.8,2.8z"/>
		<path class="st5" d="M99.4,43.7c-2.8,0-6.6,1.1-11.4,4c-0.3,0.2-0.5,0.3-0.7,0.5c-0.2,0.2-0.3,0.4-0.3,0.7c0,0.3,0.2,0.6,0.6,1
			c1.8,1.8,4.6,5.3,6.6,10l0.1,0.3l0.2-0.2c4.4-3.8,7.8-8.7,9.7-14.3l0-0.1l-0.1-0.1C103.4,44.5,101.8,43.7,99.4,43.7z"/>
		<path class="st5" d="M86.8,51.7c-0.3-0.3-0.5-0.6-0.7-0.9c-0.2-0.2-0.5-0.4-0.8-0.4c-0.5,0-1,0.3-1.7,1
			c-4.9,4.4-6.8,10.9-7.9,16.1l0,0.3l0.3,0c5.9-0.5,11.3-2.5,15.9-5.7L92,62l-0.1-0.1C90.1,57.3,88.5,54,86.8,51.7z"/>
		<path class="st5" d="M222.7,248c0-1.2,0.2-2.6,0.7-4.1c0.8-2.6,1.8-4,2.6-5c0.8-1,1.5-1.6,1.5-2.5c0-0.3-0.1-0.6-0.2-0.9
			c-0.9-2.4-2.6-4.1-3.9-5.4c-0.4-0.5-0.6-1.2-0.6-2.1c0-1.3,0.3-2.7,0.3-3.6l0-0.1c0-1.3-0.6-2.1-1.1-2.8c-0.5-0.8-1-1.5-1.1-2.9
			c-0.1-0.8-0.1-1.6-0.1-2.4c0-1.8,0.3-3.4,1.7-5.3c0.5-0.7,0.8-1.3,0.8-1.8c0-0.7-0.5-1.1-1-1.5c-0.5-0.4-1.1-0.8-1.4-1.4
			c-0.6-1.1-1-2.5-1-4.3c0-1,0.1-2.1,0.4-3.3c0.2-0.7,0.2-1.2,0.2-1.6c0-0.7-0.3-1.1-0.7-1.2c-0.6-0.2-2.7-0.6-2.7-0.6l-0.2,0
			l-3.3,6.6l0,0.1c0.5,1.2,0.7,3,0.7,4.2l-0.9,5.2c-0.7,1.2-2,3.2-2,5c0,0.8-0.4,1.6-0.8,2.3c-0.4,0.8-0.8,1.4-0.8,1.9l0,0.2
			c0.1,0.5,0.8,1.2,1.5,2.2c0.8,0.9,1.7,2,2.3,3.1c1.3,2.3,3.1,5.6,3.1,11.2c0,5.6-1.8,13.4-2.1,14.4c-0.1,0.4-0.3,0.9-0.3,1.4
			c0,0.6,0.3,1.3,1.1,2.1c1.5,1.4,4,4.1,4.9,10.1c0.5,3,0.9,5.4,1.2,7c0.2,0.8,0.3,1.4,0.4,1.9c0.1,0.5,0.2,0.7,0.4,0.9
			c0.2,0.1,0.2,0.3,0.2,0.8c0,0.3,0,0.6,0,1c0,0.6,0.3,2.5,0.6,4.4c0.4,1.9,0.8,3.9,1.2,4.5l0.3,0.2c0.2,0,0.3-0.1,0.3-0.2
			c0.2-0.4,0.2-1.1,0.3-2.1c0-1,0.1-2.2,0.1-3.3c0-1.6,0-3.2-0.1-4.1c0-0.4,0-1.1,0-1.9c0-2,0-5,0.1-7.7c0.1-2.7,0.2-5.1,0.4-5.7
			c0.2-0.8,0.4-1.6,0.4-2.5c0-1-0.3-2.1-1-3.2C224.3,253.9,222.7,251.5,222.7,248z"/>
	</g>
	<path class="st0" d="M183.9,85.9c-2.5,3.4-6.5,12-8.4,17.3c-1.9,5.4-6.1,18.2-3.1,26.6c3,8.5,8.9,3.1,10.2-0.1
		c1.3-3.2,3.4-8.7,4-10.1c0.6-1.4,0.9-2.3,2.1,1.1c1.1,3.4,2.8,11.6,2.8,12.3c0,0.7-1.1,2.8-2.4,6c-1.2,3.2-2,5.5-0.7,7.4
		c1.2,2,6.1,10.3,7.6,13.9c0.9,2.2,1.8,2.6,4.2,2c2.5-0.6,8.5-2.7,10.2-3.5c1.8-0.8,0.9-2.3,0.4-4c-0.8-2.7-3.9-17.5-3.9-19.5
		c0-2,0.5-4.5-2.1-1.6c-0.9,1-2.2,0-1.9-1.4c0.3-1.4,3.4-21.6,3.6-24c-1.8-3.8-6.9-15.9-8.3-18.1c-1.5-2.2-2-2.3-4.1-1.1
		c-2.2,1.1-7,2.9-8.8-1.2c-0.3-0.7-0.8-2.4,0.4-2.6l-0.9-0.3C184.9,84.9,184.2,85.5,183.9,85.9"/>
	<path class="st0" d="M210.9,160.1c-1.9,1.1-8.5,3.9-11.1,4.3c-2.8,0.4-2.1,1.1-1.5,3.2c0.5,2.1,2.1,8.3,2.9,10.4
		c0.8,2.2,2,2.1,4.1,2.1c3.3-0.1,8.9-1.5,12.9-5.3c-1.1-1.3-3.1-7.8-3.7-10.5C213.8,161.5,213.8,158.5,210.9,160.1"/>
	<path class="st0" d="M151.8,100.6c-0.2,0.4-0.9,1.6-2.6,1.6c-1.7,0-3-0.5-4,0.9c-1,1.4-6.7,8.4-7.9,12.6c1.2,2.6,2.9,7.2,4.1,10.5
		c4-3.4,16.9-15.9,19.3-18.4c0.9-0.9,1-1.7-0.3-2.7c-1.3-0.9-6.3-4-7.1-4.5C152.4,100.2,152,100.2,151.8,100.6"/>
	<path class="st0" d="M119.3,118.8c-0.8,3.2-2.4,8.8-5,13.1c1,1.7,1.9,3.1,3.1,3.6c2.9-2.1,8.4-7.1,9.9-9c1.5-1.9,3.5-4.6,3.5-5.3
		s-0.7-0.8-1.6-0.6c-0.9,0.2-4.8-1.3-8.5-2.1C119.7,118.3,119.4,118.3,119.3,118.8"/>
	<path class="st0" d="M117,115.7c-1.1-0.2-5.1-4.4-6.4-6.7c-1.3-2.3-1.6-2.1-2.1-0.4c-0.5,1.6-2.5,5.3-3.8,7
		c-1.3,1.7-4.8,6.3-5.8,7.3c-0.9,1,0,1.4,0.8,2.3c0.8,0.8,5.1,6,6,7.1c0.9,1.1,2,3.2,4.4,0.9c2.5-2.3,5.5-6.4,6.8-10.6
		c1.3-4.2,1.4-6.5,2.6-6.2l0.1-0.9l-0.3-0.5l-0.6-0.5c0.2,0.4,0.2,0.7-0.1,1.1C118.4,116,117.5,115.8,117,115.7"/>
	<path class="st0" d="M180.2,20.8c-2.8,3.3-8.4,6.2-17.7,8.6c-9.4,2.4-18.4,9-22.2,12.2c-3.8,3.2-13.4,11.1-18.1,13
		c-1.2,0.5-3.9,2.3-0.5,2.7c2.5,0.3,4.2-1.1,9.6-5.1c5.4-3.9,9.5-6.7,13.6-10.7c3.8-3.7,10.7-7.2,18.2-9.3c7.4-2.1,17.2-5.3,20-8.4
		c1.3-1.4,1.4-2.2,0.2-3.4C182,19.1,181.3,19.4,180.2,20.8"/>
	<path class="st0" d="M132.8,53.2c-0.8,0.4-1.1,0.9-2.1,3.9c-0.9,3-0.8,4.7-0.1,5.5c0.6,0.5,1.4,0.6,1.8,0.6c0.3,0,0.6,0.1,0.6-0.8
		c-0.1-0.9-0.1-4.6,2.7-6.3c0.5-0.3-0.1-2.5-1.9-2.2C133.2,54,133.8,52.6,132.8,53.2"/>
	<path class="st0" d="M100.9,65c1.4,0,2.4,0,2.3,1.6c-0.1,1.7-0.8,3.9-0.9,5.5c-0.1,1.5-0.1,2.2,0.8,2.2c0.9,0-1.3,0.9-2.6,1.1
		c-1.2,0.2-3.1,0.9-4.1-4.3c-0.3-1.7-0.2-4.2-0.4-4.8C97.3,65.6,99.2,65,100.9,65"/>
	<path class="st0" d="M128.4,69.4c0.4,2.1,0.9,2,0.5,2.4c-0.4,0.3-0.8-0.8-2.5-0.5c-1.6,0.3-14.6,2.3-15.5,2.4
		c-2.9,0.3-3-0.2-0.4-0.7c2.7-0.6,12.5-2.4,15.4-2.9L128.4,69.4z"/>
	<path class="st0" d="M112.7,227.2c1.3,0.8,4.5,1.7,10-0.5c5.5-2.3,11.6-0.7,12.5,3.2c0.9,3.9,1,9-0.7,11.1
		c-1.4,1.9-2.8,1.6-4.4,1.1c-3-0.9-9.9-4.1-11.9-5.1c-2-0.9-5.3-2-7.6-2c-0.9-2-0.8-5.4-0.2-6.6c0.6-1.2,0.6-2.5,1.1-2.2
		C112,226.7,112.7,227.2,112.7,227.2"/>
	<path class="st0" d="M134.4,245.4c1.3,0,3.8,0.6,4.5,3c0.6,2,4.6,2.5,6.4,2.4c1.8-0.1,1.4,0.8,1.3,1.9c-0.1,1-0.4,4.1-0.4,5.4
		c0,1.2,0.3,5.6,0.5,6.4c0.2,0.8-0.5,1.2-1.4,1.7c-0.9,0.4-4.3,1.4-6.5-0.1c-1.1-0.8-2.5-2-1.1-2.1c1.3-0.1-1.6-11.8-2.5-13.8
		C134.4,248,132,245.4,134.4,245.4"/>
	<path class="st0" d="M98.9,221.1c0.6,0.2,0.8,0.7,1.2,1.5c0.4,0.7,0.6,1.3-0.1,2.1c-1.1,1.2-2.5,6.9-2.3,10.9
		c-0.7-0.2-2.3-0.5-3.1-0.3c-0.3-2.3-0.1-9.4,0.9-11.7C96.6,221.3,97.6,220.7,98.9,221.1"/>
	<path class="st0" d="M99.1,284c2.6,2.9,7.4,7.3,11,8.9c3.6,1.5,6,2.1,9.2,1.8c2.6-0.2,2.1,0.8,0,1.1c-2.1,0.3-6.8,0.3-9.9-1.3
		c-3.1-1.7-8-4.7-11.1-9.2C97.5,284.2,98.3,283.1,99.1,284"/>
	<path class="st0" d="M152.8,276.8c-2.1,1-6,2.9-9.7,3.8c0.4,1.9,0.5,2.7,0.5,3.2c2.3,0,6.6-1.6,10.2-3.8c0.8-0.5,1.1-1.1,0.8-1.9
		C154.4,277.4,154,276.3,152.8,276.8"/>
	<path class="st0" d="M128.4,268.3c-0.5-0.5,2.4-1.1,3-1.1c0.7,0.5,2,1.6,2.5,2.1c0.3,0.3,0.2,0.5-0.2,0.7c-0.3,0.2-2.1,0.7-2.9,0.7
		C129.9,269.9,128.6,268.6,128.4,268.3"/>
	<path class="st0" d="M133.8,225.4c-0.8-0.6-0.7-0.9-0.3-1.5c0.4-0.6,0.8-1,1.2-1.2c0.4-0.2,1-0.3,1.7,0.7c0.7,1,4.6,7.5,5.5,9.3
		c0.8,1.7,1.9,0.6,1.4-0.4c-0.4-1-1.2-2.8-1.5-3.3c1.1-3.5,2.3-8.9,2.3-12.4c0-3.5-0.8-7-1.4-8.3c2.8,0.1,8.9,0,11.2-0.7
		c2.4-0.7,0.4-0.9-0.5-0.8c-0.9,0.1-7.6,0.1-12.5-0.5c-8.5-1-16.8-5.8-19.4-9.1c-0.4-0.5-2.9-0.3-0.8,1.3c2.1,1.7,7.3,6.6,15.1,7.9
		c1.8,0.3,4.5,0.8,5,7.2c0.4,6.4-0.2,10.5-0.2,11.1c0,0.6-0.4,0.8-0.9,0.1c-0.5-0.7-2.3-3.1-3.2-3.6c-0.9-0.5-1.5-0.4-2.4,0.2
		c-0.8,0.6-2.1,1.9-2.6,2.5L133.8,225.4z"/>
	<path class="st0" d="M117.2,245.6c-0.8,0-5.4,0.4-6.4,0c-1-0.4-1.6-1.5-0.9-2c0.8-0.6,2.4,0.2,4,0.2c1.6,0,3.3-0.4,3.7-0.2
		c0.4,0.3,1,0.2,1,2.1L117.2,245.6z"/>
	<path class="st0" d="M106,273.9c-1.3-0.8-2.9-4.6-3.2-12.3c-0.1-2.6,0.9-6.9,1.8-9c0.8-2.1-0.5-1.2-0.8-0.5
		c-0.3,0.7-1.3,3.6-1.7,5.8c-0.3,2.2-0.8,5.4,0,10c0.8,4.6,1.2,6.1,1.4,6.9L106,273.9z"/>
	<path class="st3" d="M148.2,20.6c0.2-0.5,0.4-1.1,0.6-1.5c-0.8,0.4-1.5,0.8-2.2,1.2C147.1,20.9,147.7,21.9,148.2,20.6"/>
	<path class="st3" d="M166.9,21.6c-0.3-1.1-1.3,0.6-2.6,2.2c-1.3,1.6-3.1,0.6-3.3-0.1c-0.2-0.8-0.6-1.7-1.7-3.2
		c-1.1-1.5,1.1-3.6,2-3.8c0.9-0.3,2.1-0.5,2.4-0.7c0.3-0.2-0.2-1.7-0.5-2.9c-3.7,1.1-8.2,3-12.2,5c1.2,0.5,0.9,2.8,0.7,3.2
		c-0.2,0.4-0.6,2.4,0.4,1.2c0.9-1.2,1.3-1.7,2.3-2c1-0.3,2.1-0.3,2.1,1.2c0,1.4-0.6,1.3-0.8,2.3c-0.2,0.9,0,0.9,0.5,1.1
		c0.5,0.2,0.8,0.8,0.4,1.8c-0.4,1-1.9,1.1-3.3,0.9c-1.4-0.2-1.5,0.1-1.1,0.5c0.4,0.4,0.9,1.2,1.1,2.1c3.4-1.6,7.4-3,13.7-4.3
		C167,24.7,167.1,22.5,166.9,21.6"/>
	<path class="st3" d="M134.3,42c-0.5-0.9-1.1-1.1-1.4-0.4c-0.3,0.7-0.8,3.1-2.4,3.8c-0.5,0.2-0.9,0.3-1.2,0.4
		c0.6,0.6,1.2,1.1,1.9,1.6c1.3-1.3,2.4-2.5,3.6-3.7C134.7,43.2,134.6,42.6,134.3,42"/>
	<path class="st3" d="M149.7,29.6c-0.6-0.2-1,0.7-1.4,1.3c-0.4,0.6-1.1,1.7-2.5,1.5c-1.3-0.2-1.6-0.6-2-1.8
		c-0.4-1.1-1.2-1.5-2.2-1.5c-1,0-1.7-1.2-0.6-2.4c1-1.2,2.1-0.7,2.9-0.7c0.8,0,1.2-0.9,0.6-1.3c-0.5-0.4-1.5-1.4-1.6-2.2
		c-2.9,1.9-7.2,4.9-10.8,8.2c0.7,0.1,1.4,0.3,1.8,0.4c0.5,0.2,1.3,0.8,1.2,1.8c-0.1,0.9,0.2,1.1,0.8,0.5c0.6-0.6-0.1-2.5,1.8-3.2
		c1.9-0.7,2.2,0.7,2.1,1.7c-0.1,1,0,1.9,1,2.3c1,0.4,2.1,2-0.1,2.9c-2.2,0.9-3.3,1.1-4.2,1.4c-0.9,0.3-0.7,1.1,0,1.7
		c0.4,0.3,0.8,0.7,1,0.9c2.7-2.5,5.3-4.6,8.2-6.6c1.6-1.1,3-2,4.6-2.9C150.4,30.8,150.5,29.9,149.7,29.6"/>
	<path class="st3" d="M129.5,39.3c0.1-1-0.7-1.4-1.2-1.5c-0.4-0.1-1.1-0.9-1.4-1.5c-0.5,0.7-1,1.4-1.3,2c0.2,0.7,0.5,1.3,0.7,1.9
		C127.5,40.2,129.4,40.1,129.5,39.3"/>
	<path class="st3" d="M173,87.4c-3.4-0.2-7.4,0.5-11.2,1.9c0.7,0.4,1.4,1.3,2.8,0.8c2-0.7,2.6,1.4,1.7,2c-0.9,0.6-1.2,2,0.5,0.9
		c1.7-1.1,3.3,0.5,2.6,1.6c-0.7,1.1-1.7,0.3-1.4,1.9c0.2,1.6-0.2,3-1.6,3.3c-1.4,0.3-1.8-1.9-2.4-1.7c-0.7,0.2,0.2,3.8-0.2,3.9
		c-1,0.2-2,1-2.5,1.6l0.1,0.1c5.7,4.1,7.1,1.9,7.9-0.1c0.8-2,2.7-7.8,3.2-10.8C172.8,90.9,173.2,89,173,87.4"/>
	<path class="st3" d="M160.7,98.6c0.3-0.8-0.5-1.4-1.4-0.9c-0.9,0.6-2.2,1.4-3-0.1c-0.9-1.5,1-1.6,1.1-2.4c0.1-0.7-0.6-0.8-0.3-2
		c0.4-1.2,1.6-0.8,2.6-0.2c1.1,0.7,0.8-1,0.6-1.6c-0.1-0.5-0.2-1-0.1-1.4c-1.1,0.5-2.2,1.1-3.3,1.7c-5.3,3.2-5.5,6-4.2,7
		c1.1,0.9,3.4,1.4,7.2,3.9C160,101.3,160.5,99.2,160.7,98.6"/>
	<path class="st3" d="M143.9,95.5c-2.2-1.1-4.3-3.5-5.8-6.3c0,0,0.1-0.4-0.5-0.4c-0.6,0-2.9-0.2-6.7-1.6c-3.8-1.3-4.3-0.5-4.8,1.1
		c-0.5,1.7-0.9,4.6-1,9.6c-0.1,4.9,2.1,8,3.4,7.5c0.6-0.3,2.3-1.1,4.1-2c0-1,0.1-2.7,0.2-3.5c0.2-1.2-1.1-0.7-1.6-0.1
		c-0.5,0.6-1.5,1.7-2.4,1.5c-0.9-0.1-1.6-1.8-1.4-3.4c0.2-1.5-1.7-2.2-0.5-4.2c1.1-2.1,2.1,0.5,3,0.3c1-0.2,0.5-0.7,0-2.3
		c-0.5-1.6,1.5-2.1,2.7-0.9c0.8,0.7,1.1-0.9,2.3-0.7c1.1,0.2,1.8,1,1.1,2.1c-0.5,0.9-0.9,2.9,0.1,1.9c1-1.1,2-1.8,2.9-1
		c0.9,0.7,0.3,2.2,0.1,3c-0.3,0.8,1.7,1.7,0.3,2.6c-1.3,0.9-2.8-0.7-3.6-0.5c-0.8,0.2-0.9,1.1,0.1,1.8c0.7,0.5,1.4,0.8,1.9,1.1
		c2.1-0.7,4.7-2.1,5.5-2.7l1.3,0.1C144.6,97,144.5,95.8,143.9,95.5"/>
	<path class="st3" d="M136.2,118.2c-0.8-1.9-1.1-0.4-3.4,3.2c-1.2,1.8-4.1,5.2-7.8,9.1c2.5,0.5,8,1.9,4.8,4.5
		c-3.5,2.9-2,2.7-0.4,2.5c1.5-0.2,4.1,0.7,2.2,4.2c-2,3.5-3.3,6-5.2,7.1c-1.9,1.1-4.5,1-5.2-1.7c-0.6-2.7-2.4,0-2.5,1.8
		c-0.1,1.8-0.3,4.7-0.1,5.8l-3.9-0.2c-0.1-1.7-0.1-5,0.2-6.5c0.3-1.5,0.2-3.4-2.2-2.7c-1.5,0.5-2.6,0.1-3.2-0.2
		c-4.6,4.1-6.9,6.9-8.5,9.4c1.2,1,3.1,1.8,5.1,1c2.3-0.9,6,0.2,3.7,3.7c-2.3,3.5-2.2,5.3,0.1,3.1c2.3-2.2,5.9-5.9,7-2
		c0.7,2.6-1.6,3.4-1.5,5.5c0.1,2.1,2.2,4.1-0.7,6.6c-2.9,2.5-4.1-1.7-6.1-1.1c-1.2,0.4-1.4,1.5-1.4,2.4c2.6,3.6,6.3,8.8,7.6,11
		c2.1,3.4,2.1,7.5,2.9,6.9c0.8-0.6,2.8-2.5,3.4-3c0.6-0.5,1.2-1.1,0.9-2.3c-0.3-1.1-1.5-7.2-1.1-11.4c0.4-4.9,2.7-10.2,4.3-13.2
		c1.6-2.9,6.4-12.3,7.5-14.8c1.1-2.5,3.2-5.4,3.7-7.6c0.5-2.3,2.5-7.5,3.3-10C139.7,127.3,138.4,123.1,136.2,118.2"/>
	<path class="st3" d="M181.2,164c-2.7-4.4-3.2-6.2-3.6-10.7c-0.3-2.9,0-6.6,0.4-10.2c-0.8-0.1-1.9,0.1-1.9,1.3c-0.1,2-1,4.8-1.6,6.2
		c-0.6,1.4-2.7,1.3-3.9,1.4c-1.2,0.1-1.2-0.7-0.4-2.6c0.8-1.9,1.1-2.7,0.9-4.3c-0.2-1.6-1-0.2-1.8,1.2c-0.7,1.4-2.8,4.3-5.2,4
		c-2.4-0.3-1.8-3.9-1.5-5.2c0.2-1.2-0.5-1.4-1.4-1.7c-0.9-0.2-2.8-0.6-1.8-3.6c1-3,2.2-2.7,3.6-2.2c1.4,0.5,1.7-0.4,0.3-0.9
		c-1.3-0.5-2.8-1.7-2.7-3.1c0.3-3.8,2.7-3.5,4.5-3.1c1.6,0.4,3.7-0.6,5-2.1l-0.1-0.3c-2.8-10.5,2.5-23.4,3.9-27
		c1.4-3.6,7-13.8,8.9-16.8c-1-0.5-3.8-1.9-5.3-2.7c-1.5-0.8-2.3-1.1-2.7-0.6c-0.4,0.6-0.9,0.9-1.7,1.9c-1.4,2.1-0.2,1.8,0.2,1.8
		c0.4,0,2.2,2.3,2.5,2.8c0.3,0.5,0,0.9-0.7,2.6c-0.9,2.2-1.5,7.1-2.4,10.1c-2.5,9.1-6.4,8.1-8.1,7c-1.8-1.1-2.3,0.6-4,3.1
		c-0.4,0.6-1.5,1.7-2.9,3.1c1.7,0.8,4,2.9,1.2,5c-3.2,2.5-3.8,3.8-2.3,3.5c1.5-0.3,3.1-2.7,4.9-1c1.8,1.7-0.6,3.5-1.5,4
		c-0.9,0.5-2.8,1.4-2.3,3.4c0.5,2,0.8,4.6-1.8,5.3c-2.6,0.6-3.6-0.5-4.3-1.9c-0.7-1.3-1.4-0.4-1.8,1.2c-0.3,1.7-0.5,2.9-0.5,3.5
		c0,0.6-1.9-0.3-2.7-1.1c-0.8-0.8-1.9,1.4-2.8,0.3c-0.9-1.1,1.1-4.6,1.9-5.9c0.7-1.2,0.4-2.8-3.7-0.9c-1.3,2.2-2.4,5.4-4,10.5
		c-2.3,6.9-7.4,16.3-9.5,19.8c-5.6,8.9-6.6,17.4-5.7,22.6c0.8,5.2,1.5,4.8,2.7,4.8c1.1,0,3.9,3.5,5.8,5.7c1.9,2.2,2.6,1.2,3.5,0.5
		c3-2.3,9-6.2,17.4-10.2c3.6-1.7,8.4-3.5,13.1-5c0.1-1.9,0.5-4.3,0.7-5.2c0.2-1-0.8-1.3-1.9,0c-1,1.3-3.8,4.6-5.7,3.8
		c-1.9-0.8-3.4-2.9-2.4-4.6c1-1.8-0.4-2.3-1.1-3.2c-0.7-0.9-0.7-4.5,1.5-4.9c2.3-0.3,3,1.7,4.5,2.2c1.5,0.5,2.8,0.4,0.8-1.8
		c-2-2.2-4.3-1.3-3.1-4.3c1.2-3,3-2.8,5.1-2.2c2.1,0.6,3.1-0.5,4.4-1.4c1.3-0.9,4-2.2,5.9,0c1.9,2.2-1.3,4.1-2.1,4.9
		c-1.4,1.4-1.6,4-0.1,2.5c1.5-1.5,4.2-7.1,6-2.5c1,2.7-0.9,3.7-0.6,5.4c0.3,1.6,3.1,3.9,0.8,6c-2.3,2.1-5.5,0.3-6.8-0.9
		c-1.3-1.2-2.8-1.9-2.2,0.4c0.5,1.7,0.7,3.4,0.7,4.5c4.5-1.2,8.4-2,10.4-1.8c2.9,0.3,5.2,1.1,5.1-1.6
		C185.3,170.3,183.9,168.5,181.2,164"/>
	<path class="st3" d="M144.6,182.5c-2.5,0.7-2.9-0.4-4.5-1c-1.7-0.6-1.8,0.8-0.6,2.6c1.1,1.8,2.4,3.4,1,3.4c-1.3,0-2.4,0.2-2.6,1.2
		c-0.2,1-2.4-0.2-2.9-2.4c-0.5-2.2-1-6.3-2.2-4.2c-1.1,2.1-2.2,5.5-5.1,3.9c-2.9-1.6-0.9-3.6-2.4-5.1c-1.4-1.4-2.8-3.3-1.3-5.9
		c1.4-2.6,2.7-0.4,4-0.4c1.3,0,1.5-1.2,0.3-2.2c-1.2-0.9-2.8-5.4,2.9-5.1c2.2,0.1,4.5-0.6,6.4-2c1.9-1.3,6.7-0.6,4.7,2.8
		c-2,3.4-1.3,4.1-0.2,2.9c1.1-1.2,2.6-3.5,4.7-2.9c2.2,0.6,1.2,2.3-0.1,4.1c-1.3,1.9-0.5,3.1,0.5,3.8
		C148.4,176.9,150.3,180.8,144.6,182.5"/>
	<path class="st3" d="M155.1,158.2c-1.9,0.1-4.1-0.4-4.1-0.4c-0.2,2-2.1,4.8-4,7.6c-0.2,0.3-1.3,0.3-1.9-0.1c-0.5-0.4-2-1.1-0.8-2.4
		c1.1-1.2,3-3.8,2.7-4.9c-0.3-1.1-1.1-2.2-2.4-0.6c-1.2,1.5-3.2,4.7-5.4,4.9c-2.2,0.1-4.3-1.9-3.3-3.8c1-2,1.3-3-0.1-4.7
		c-1.4-1.8-0.9-4,2.2-5.4c0.9-0.4,2.6,0,3.7,0.9c1.1,0.9,1.8,0,0.2-0.9c-1.5-0.9-2.8-2.1-3-4.1c-0.2-2,1-4,3.7-2.9
		c2.7,1.1,4.3,0.2,5.5-0.7c1.1-0.9,6-2.1,5.3,2.2c-0.5,3.1-2,3.2-2.4,4.8c-0.4,1.7,0.8,0.6,1.5-0.6c0.7-1.2,2.4-6.3,5.8-2.5
		c0.8,0.9,0.5,2.5-0.5,4.2c-1,1.8-0.2,2.8,0.4,3.7C158.8,153.3,160.2,157.9,155.1,158.2"/>
	<path class="st2" d="M153.2,27.6c1.4,0.2,2.9,0.1,3.3-0.9c0.4-1,0.1-1.6-0.4-1.8c-0.5-0.2-0.7-0.2-0.5-1.1c0.2-0.9,0.9-0.8,0.8-2.3
		c-0.1-1.4-1.1-1.5-2.1-1.2c-1,0.3-1.3,0.8-2.3,2c-0.9,1.2-0.5-0.8-0.4-1.2c0.1-0.3,0.5-2.7-0.8-3.1c-0.7,0.4-1.4,0.7-2.1,1.1
		c-0.2,0.4-0.4,1-0.6,1.5c-0.5,1.3-1.1,0.3-1.6-0.3l0,0c-1.4,0.8-2.6,1.5-3.5,2.1l-0.3,0.2c0.1,0.8,1.1,1.8,1.6,2.2
		c0.7,0.5,0.3,1.3-0.6,1.3c-0.8,0-1.9-0.6-2.9,0.7c-1,1.2-0.4,2.4,0.6,2.4c1,0,1.8,0.4,2.2,1.5c0.4,1.1,0.7,1.6,2,1.8
		c1.3,0.2,2.1-0.9,2.5-1.5c0.4-0.6,0.8-1.5,1.4-1.3c0.8,0.3,0.7,1.2,0.5,2.1c1-0.6,2-1.1,3-1.6c-0.2-0.9-0.7-1.7-1.1-2.1
		C151.6,27.6,151.8,27.4,153.2,27.6"/>
	<path class="st2" d="M164.7,12.6c-0.5,0.1-1,0.2-1.5,0.4c0.3,1.2,0.7,2.7,0.5,2.9c-0.3,0.3-1.5,0.5-2.4,0.7c-0.9,0.3-3.1,2.3-2,3.8
		c1.1,1.5,1.5,2.4,1.7,3.2c0.2,0.8,2.1,1.7,3.3,0.1c1.3-1.5,2.3-3.2,2.6-2.2c0.3,0.9,0.2,3.1,0,4.3c0.3-0.1,0.5-0.1,0.8-0.2
		C168.2,19.9,166.8,15.8,164.7,12.6"/>
	<path class="st2" d="M136.4,40.3c-0.7-0.6-0.9-1.4,0-1.7c0.9-0.3,2.1-0.5,4.2-1.4c2.2-0.9,1-2.5,0.1-2.9c-1-0.4-1.1-1.3-1-2.3
		c0.1-1-0.2-2.4-2.1-1.7c-1.9,0.7-1.2,2.6-1.8,3.2c-0.6,0.6-0.9,0.4-0.8-0.5c0.1-0.9-0.7-1.6-1.2-1.8c-0.4-0.2-1.2-0.3-1.8-0.4
		c-2,1.8-3.8,3.7-5.1,5.5c0.3,0.6,1,1.3,1.4,1.5c0.5,0.2,1.3,0.5,1.2,1.5c0,0.9-2,0.9-3.3,1c0.9,2.5,1.8,4.2,3.1,5.6
		c0.3-0.1,0.7-0.2,1.2-0.4c1.6-0.7,2.1-3.1,2.4-3.8c0.3-0.7,0.9-0.6,1.4,0.4c0.3,0.6,0.4,1.3,0.5,1.8c0.9-0.9,1.8-1.8,2.7-2.6
		C137.1,41,136.8,40.7,136.4,40.3"/>
	<path class="st2" d="M163.8,101.9c0.3,0-0.5-3.7,0.2-3.9c0.7-0.2,1,2,2.4,1.7c1.4-0.3,1.8-1.7,1.6-3.3c-0.2-1.6,0.7-0.7,1.4-1.9
		c0.7-1.1-0.8-2.7-2.6-1.6c-1.8,1.1-1.4-0.4-0.5-0.9c0.9-0.6,0.3-2.6-1.7-2c-1.4,0.5-2.1-0.4-2.8-0.8c-0.5,0.2-1,0.4-1.6,0.7
		c-0.1,0.4,0,0.9,0.1,1.4c0.1,0.7,0.5,2.4-0.6,1.6c-0.9-0.6-2.2-1-2.6,0.2c-0.4,1.2,0.4,1.3,0.3,2c-0.1,0.7-2,0.9-1.1,2.4
		c0.9,1.5,2.2,0.7,3,0.1c0.9-0.6,1.7,0.1,1.4,0.9c-0.2,0.6-0.7,2.6-0.8,4c0.4,0.3,0.8,0.6,1.3,0.9
		C161.8,103,162.7,102.1,163.8,101.9"/>
	<path class="st2" d="M135.7,98.4c0.8-0.2,2.3,1.4,3.6,0.5c1.3-0.9-0.6-1.9-0.3-2.6c0.3-0.8,0.9-2.3-0.1-3c-0.9-0.7-1.9,0-2.9,1
		c-1,1.1-0.6-1-0.1-1.9c0.7-1.1,0-1.9-1.1-2.1c-1.1-0.2-1.5,1.4-2.3,0.7c-1.2-1.1-3.1-0.7-2.7,0.9c0.5,1.6,1,2.1,0,2.3
		c-1,0.2-1.9-2.4-3-0.3c-1.1,2.1,0.7,2.7,0.5,4.2c-0.2,1.5,0.5,3.2,1.4,3.4c0.9,0.2,1.9-0.9,2.4-1.5c0.5-0.6,1.8-1.1,1.6,0.1
		c-0.1,0.8-0.2,2.5-0.2,3.5c1.9-0.9,3.9-1.9,5-2.3l0.1-0.1c-0.5-0.2-1.3-0.5-1.9-1C134.7,99.5,134.9,98.6,135.7,98.4"/>
	<path class="st2" d="M112.8,145.4c2.4-0.7,2.5,1.1,2.2,2.7c-0.3,1.5-0.3,4.8-0.2,6.5l3.9,0.2c-0.2-1,0-4,0.1-5.8
		c0.1-1.8,1.9-4.4,2.5-1.8c0.6,2.7,3.3,2.8,5.2,1.7c1.9-1.1,3.2-3.6,5.2-7.1c2-3.5-0.6-4.4-2.2-4.2c-1.5,0.2-3.1,0.4,0.4-2.5
		c3.3-2.7-2.2-4-4.8-4.5c-4.2,4.4-9.3,9.3-13.8,13.2c-0.6,0.5-1.1,1-1.6,1.4C110.2,145.5,111.2,145.8,112.8,145.4"/>
	<path class="st2" d="M108.7,171.4c2-0.6,3.2,3.6,6.1,1.1c2.9-2.5,0.8-4.5,0.7-6.6c-0.1-2.1,2.3-2.9,1.5-5.5c-1.1-3.9-4.7-0.2-7,2
		c-2.3,2.2-2.4,0.4-0.1-3.1c2.3-3.5-1.4-4.6-3.7-3.7c-2,0.8-3.9,0-5.1-1c-0.9,1.4-1.5,2.7-2.2,4c-2,4-0.6,4.1,0.8,4.1
		c1.4,0,4.5,6.1,4.9,7.2c0.1,0.4,1.2,2,2.6,3.9C107.3,172.9,107.5,171.7,108.7,171.4"/>
	<path class="st2" d="M138.9,144.1c-0.2-2,1-4,3.7-2.9c2.7,1.1,4.3,0.2,5.5-0.7c1.1-0.9,6-2.1,5.3,2.2c-0.5,3.1-2,3.2-2.4,4.8
		c-0.4,1.7,0.8,0.6,1.5-0.6c0.7-1.2,2.4-6.3,5.8-2.5c0.8,0.9,0.5,2.5-0.5,4.2c-1,1.8-0.2,2.8,0.4,3.7c0.6,0.9,2.1,5.5-3.1,5.8
		c-1.9,0.1-4.1-0.4-4.1-0.4c-0.2,2-2.1,4.8-4,7.6c-0.2,0.3-1.3,0.3-1.9-0.1c-0.5-0.4-2-1.1-0.8-2.4c1.1-1.2,3-3.8,2.7-4.9
		c-0.3-1.1-1.1-2.2-2.4-0.6c-1.2,1.5-3.2,4.7-5.4,4.9c-2.2,0.1-4.3-1.9-3.3-3.8c1-2,1.3-3-0.1-4.7c-1.4-1.8-0.9-4,2.2-5.4
		c0.9-0.4,2.6,0,3.7,0.9c1.1,0.9,1.8,0,0.2-0.9C140.3,147.3,139.1,146.2,138.9,144.1"/>
	<path class="st2" d="M165.1,130.7c-1.9-0.4-4.3-0.7-4.5,3.1c-0.1,1.4,1.3,2.6,2.7,3.1c1.3,0.5,1.1,1.4-0.3,0.9
		c-1.4-0.5-2.6-0.8-3.6,2.2c-1,3,0.8,3.4,1.8,3.6c0.9,0.2,1.6,0.4,1.4,1.7c-0.2,1.2-0.8,4.8,1.5,5.2c2.4,0.3,4.4-2.6,5.2-4
		c0.7-1.4,1.5-2.9,1.8-1.2c0.2,1.7-0.1,2.5-0.9,4.3c-0.8,1.9-0.8,2.7,0.4,2.6c1.2-0.1,3.3,0,3.9-1.4c0.6-1.4,1.5-4.2,1.6-6.2
		c0.1-1.2,1.1-1.4,1.9-1.3c0.2-2.1,0.5-4.1,0.8-5.9c-4,0.6-7.5-4.3-8.7-8.6C168.7,130.1,166.7,131.1,165.1,130.7"/>
	<path class="st2" d="M145.8,130c-0.7,1.2-2.8,4.7-1.9,5.9c0.9,1.1,2-1.1,2.8-0.3c0.8,0.8,2.7,1.7,2.7,1.1c0-0.6,0.2-1.9,0.5-3.5
		c0.3-1.6,1-2.6,1.8-1.2c0.7,1.3,1.8,2.5,4.3,1.9c2.6-0.6,2.3-3.3,1.8-5.3c-0.5-2,1.3-2.9,2.3-3.4c0.9-0.5,3.3-2.4,1.5-4
		c-1.8-1.6-3.3,0.7-4.9,1c-1.5,0.3-0.9-1,2.3-3.5c2.8-2.1,0.5-4.3-1.2-5c-4.4,4.5-12.3,11.7-14,13.4c-0.6,0.6-1.2,1.3-1.7,2.1
		C146.2,127.2,146.5,128.8,145.8,130"/>
	<path class="st2" d="M171.4,171.5c1.3,1.2,4.5,3,6.8,0.9c2.3-2.1-0.5-4.3-0.8-6c-0.3-1.7,1.7-2.7,0.6-5.4c-1.8-4.7-4.4,0.9-6,2.5
		c-1.5,1.5-1.3-1.1,0.1-2.5c0.7-0.7,3.9-2.7,2.1-4.9c-1.9-2.2-4.5-0.9-5.9,0c-1.3,0.9-2.4,2.1-4.4,1.4c-2.1-0.6-3.8-0.8-5.1,2.2
		c-1.2,3,1.1,2.2,3.1,4.3c2,2.2,0.7,2.3-0.8,1.8c-1.5-0.5-2.3-2.5-4.5-2.2c-2.3,0.3-2.3,3.9-1.5,4.9c0.7,0.9,2.2,1.4,1.1,3.2
		c-1,1.8,0.5,3.8,2.4,4.6c1.9,0.8,4.6-2.5,5.7-3.8c1-1.3,2.1-1,1.9,0c-0.2,0.9-0.7,3.2-0.7,5.2c1.6-0.5,3.1-1,4.6-1.4
		c0-1.1-0.2-2.8-0.7-4.5C168.6,169.6,170.1,170.2,171.4,171.5"/>
	<path class="st2" d="M131.3,167.4c2.2,0.1,4.5-0.6,6.4-2c1.9-1.3,6.7-0.6,4.7,2.8c-2,3.4-1.3,4.1-0.2,2.9c1.1-1.2,2.6-3.5,4.7-2.9
		c2.2,0.6,1.2,2.3-0.1,4.1c-1.3,1.9-0.5,3.1,0.5,3.8c1,0.7,2.9,4.6-2.8,6.3c-2.5,0.7-2.9-0.4-4.5-1c-1.7-0.6-1.8,0.8-0.6,2.6
		c1.1,1.8,2.4,3.4,1,3.4c-1.3,0-2.4,0.2-2.6,1.2c-0.2,1-2.4-0.2-2.9-2.4c-0.5-2.2-1-6.3-2.2-4.2c-1.1,2.1-2.2,5.5-5.1,3.9
		c-2.9-1.6-0.9-3.6-2.4-5.1c-1.4-1.4-2.8-3.3-1.3-5.9c1.4-2.6,2.7-0.4,4-0.4c1.3,0,1.5-1.2,0.3-2.2
		C127.1,171.6,125.6,167.1,131.3,167.4"/>
	<path class="st3" d="M151.7,95.2c-0.6,1.6-1.4,3.7-1.9,4.8c-0.4,1-2.3,0.6-2.2-0.1c0.3-1.5-1.9-0.5-1.6-1.8c0.2-1-0.2-2.7,0.9-2.7
		C148.1,95.4,150.2,95.2,151.7,95.2"/>
	<path class="st3" d="M148.2,20.6c0.2-0.5,0.4-1.1,0.6-1.5c-0.8,0.4-1.5,0.8-2.2,1.2C147.1,20.9,147.7,21.9,148.2,20.6"/>
	<path class="st3" d="M166.9,21.6c-0.3-1.1-1.3,0.6-2.6,2.2c-1.3,1.6-3.1,0.6-3.3-0.1c-0.2-0.8-0.6-1.7-1.7-3.2
		c-1.1-1.5,1.1-3.6,2-3.8c0.9-0.3,2.1-0.5,2.4-0.7c0.3-0.2-0.2-1.7-0.5-2.9c-3.7,1.1-8.2,3-12.2,5c1.2,0.5,0.9,2.8,0.7,3.2
		c-0.2,0.4-0.6,2.4,0.4,1.2c0.9-1.2,1.3-1.7,2.3-2c1-0.3,2.1-0.3,2.1,1.2c0,1.4-0.6,1.3-0.8,2.3c-0.2,0.9,0,0.9,0.5,1.1
		c0.5,0.2,0.8,0.8,0.4,1.8c-0.4,1-1.9,1.1-3.3,0.9c-1.4-0.2-1.5,0.1-1.1,0.5c0.4,0.4,0.9,1.2,1.1,2.1c3.4-1.6,7.4-3,13.7-4.3
		C167,24.7,167.1,22.5,166.9,21.6"/>
	<path class="st3" d="M134.3,42c-0.5-0.9-1.1-1.1-1.4-0.4c-0.3,0.7-0.8,3.1-2.4,3.8c-0.5,0.2-0.9,0.3-1.2,0.4
		c0.6,0.6,1.2,1.1,1.9,1.6c1.3-1.3,2.4-2.5,3.6-3.7C134.7,43.2,134.6,42.6,134.3,42"/>
	<path class="st3" d="M149.7,29.6c-0.6-0.2-1,0.7-1.4,1.3c-0.4,0.6-1.1,1.7-2.5,1.5c-1.3-0.2-1.6-0.6-2-1.8
		c-0.4-1.1-1.2-1.5-2.2-1.5c-1,0-1.7-1.2-0.6-2.4c1-1.2,2.1-0.7,2.9-0.7c0.8,0,1.2-0.9,0.6-1.3c-0.5-0.4-1.5-1.4-1.6-2.2
		c-2.9,1.9-7.2,4.9-10.8,8.2c0.7,0.1,1.4,0.3,1.8,0.4c0.5,0.2,1.3,0.8,1.2,1.8c-0.1,0.9,0.2,1.1,0.8,0.5c0.6-0.6-0.1-2.5,1.8-3.2
		c1.9-0.7,2.2,0.7,2.1,1.7c-0.1,1,0,1.9,1,2.3c1,0.4,2.1,2-0.1,2.9c-2.2,0.9-3.3,1.1-4.2,1.4c-0.9,0.3-0.7,1.1,0,1.7
		c0.4,0.3,0.8,0.7,1,0.9c2.7-2.5,5.3-4.6,8.2-6.6c1.6-1.1,3-2,4.6-2.9C150.4,30.8,150.5,29.9,149.7,29.6"/>
	<path class="st3" d="M129.5,39.3c0.1-1-0.7-1.4-1.2-1.5c-0.4-0.1-1.1-0.9-1.4-1.5c-0.5,0.7-1,1.4-1.3,2c0.2,0.7,0.5,1.3,0.7,1.9
		C127.5,40.2,129.4,40.1,129.5,39.3"/>
	<path class="st3" d="M173,87.4c-3.4-0.2-7.4,0.5-11.2,1.9c0.7,0.4,1.4,1.3,2.8,0.8c2-0.7,2.6,1.4,1.7,2c-0.9,0.6-1.2,2,0.5,0.9
		c1.7-1.1,3.3,0.5,2.6,1.6c-0.7,1.1-1.7,0.3-1.4,1.9c0.2,1.6-0.2,3-1.6,3.3c-1.4,0.3-1.8-1.9-2.4-1.7c-0.7,0.2,0.2,3.8-0.2,3.9
		c-1,0.2-2,1-2.5,1.6l0.1,0.1c5.7,4.1,7.1,1.9,7.9-0.1c0.8-2,2.7-7.8,3.2-10.8C172.8,90.9,173.2,89,173,87.4"/>
	<path class="st3" d="M160.7,98.6c0.3-0.8-0.5-1.4-1.4-0.9c-0.9,0.6-2.2,1.4-3-0.1c-0.9-1.5,1-1.6,1.1-2.4c0.1-0.7-0.6-0.8-0.3-2
		c0.4-1.2,1.6-0.8,2.6-0.2c1.1,0.7,0.8-1,0.6-1.6c-0.1-0.5-0.2-1-0.1-1.4c-1.1,0.5-2.2,1.1-3.3,1.7c-5.3,3.2-5.5,6-4.2,7
		c1.1,0.9,3.4,1.4,7.2,3.9C160,101.3,160.5,99.2,160.7,98.6"/>
	<path class="st3" d="M143.9,95.5c-2.2-1.1-4.3-3.5-5.8-6.3c0,0,0.1-0.4-0.5-0.4c-0.6,0-2.9-0.2-6.7-1.6c-3.8-1.3-4.3-0.5-4.8,1.1
		c-0.5,1.7-0.9,4.6-1,9.6c-0.1,4.9,2.1,8,3.4,7.5c0.6-0.3,2.3-1.1,4.1-2c0-1,0.1-2.7,0.2-3.5c0.2-1.2-1.1-0.7-1.6-0.1
		c-0.5,0.6-1.5,1.7-2.4,1.5c-0.9-0.1-1.6-1.8-1.4-3.4c0.2-1.5-1.7-2.2-0.5-4.2c1.1-2.1,2.1,0.5,3,0.3c1-0.2,0.5-0.7,0-2.3
		c-0.5-1.6,1.5-2.1,2.7-0.9c0.8,0.7,1.1-0.9,2.3-0.7c1.1,0.2,1.8,1,1.1,2.1c-0.5,0.9-0.9,2.9,0.1,1.9c1-1.1,2-1.8,2.9-1
		c0.9,0.7,0.3,2.2,0.1,3c-0.3,0.8,1.7,1.7,0.3,2.6c-1.3,0.9-2.8-0.7-3.6-0.5c-0.8,0.2-0.9,1.1,0.1,1.8c0.7,0.5,1.4,0.8,1.9,1.1
		c2.1-0.7,4.7-2.1,5.5-2.7l1.3,0.1C144.6,97,144.5,95.8,143.9,95.5"/>
	<path class="st3" d="M136.2,118.2c-0.8-1.9-1.1-0.4-3.4,3.2c-1.2,1.8-4.1,5.2-7.8,9.1c2.5,0.5,8,1.9,4.8,4.5
		c-3.5,2.9-2,2.7-0.4,2.5c1.5-0.2,4.1,0.7,2.2,4.2c-2,3.5-3.3,6-5.2,7.1c-1.9,1.1-4.5,1-5.2-1.7c-0.6-2.7-2.4,0-2.5,1.8
		c-0.1,1.8-0.3,4.7-0.1,5.8l-3.9-0.2c-0.1-1.7-0.1-5,0.2-6.5c0.3-1.5,0.2-3.4-2.2-2.7c-1.5,0.5-2.6,0.1-3.2-0.2
		c-4.6,4.1-6.9,6.9-8.5,9.4c1.2,1,3.1,1.8,5.1,1c2.3-0.9,6,0.2,3.7,3.7c-2.3,3.5-2.2,5.3,0.1,3.1c2.3-2.2,5.9-5.9,7-2
		c0.7,2.6-1.6,3.4-1.5,5.5c0.1,2.1,2.2,4.1-0.7,6.6c-2.9,2.5-4.1-1.7-6.1-1.1c-1.2,0.4-1.4,1.5-1.4,2.4c2.6,3.6,6.3,8.8,7.6,11
		c2.1,3.4,2.1,7.5,2.9,6.9c0.8-0.6,2.8-2.5,3.4-3c0.6-0.5,1.2-1.1,0.9-2.3c-0.3-1.1-1.5-7.2-1.1-11.4c0.4-4.9,2.7-10.2,4.3-13.2
		c1.6-2.9,6.4-12.3,7.5-14.8c1.1-2.5,3.2-5.4,3.7-7.6c0.5-2.3,2.5-7.5,3.3-10C139.7,127.3,138.4,123.1,136.2,118.2"/>
	<path class="st3" d="M181.2,164c-2.7-4.4-3.2-6.2-3.6-10.7c-0.3-2.9,0-6.6,0.4-10.2c-0.8-0.1-1.9,0.1-1.9,1.3c-0.1,2-1,4.8-1.6,6.2
		c-0.6,1.4-2.7,1.3-3.9,1.4c-1.2,0.1-1.2-0.7-0.4-2.6c0.8-1.9,1.1-2.7,0.9-4.3c-0.2-1.6-1-0.2-1.8,1.2c-0.7,1.4-2.8,4.3-5.2,4
		c-2.4-0.3-1.8-3.9-1.5-5.2c0.2-1.2-0.5-1.4-1.4-1.7c-0.9-0.2-2.8-0.6-1.8-3.6c1-3,2.2-2.7,3.6-2.2c1.4,0.5,1.7-0.4,0.3-0.9
		c-1.3-0.5-2.8-1.7-2.7-3.1c0.3-3.8,2.7-3.5,4.5-3.1c1.6,0.4,3.7-0.6,5-2.1l-0.1-0.3c-2.8-10.5,2.5-23.4,3.9-27
		c1.4-3.6,7-13.8,8.9-16.8c-1-0.5-3.8-1.9-5.3-2.7c-1.5-0.8-2.3-1.1-2.7-0.6c-0.4,0.6-0.9,0.9-1.7,1.9c-1.4,2.1-0.2,1.8,0.2,1.8
		c0.4,0,2.2,2.3,2.5,2.8c0.3,0.5,0,0.9-0.7,2.6c-0.9,2.2-1.5,7.1-2.4,10.1c-2.5,9.1-6.4,8.1-8.1,7c-1.8-1.1-2.3,0.6-4,3.1
		c-0.4,0.6-1.5,1.7-2.9,3.1c1.7,0.8,4,2.9,1.2,5c-3.2,2.5-3.8,3.8-2.3,3.5c1.5-0.3,3.1-2.7,4.9-1c1.8,1.7-0.6,3.5-1.5,4
		c-0.9,0.5-2.8,1.4-2.3,3.4c0.5,2,0.8,4.6-1.8,5.3c-2.6,0.6-3.6-0.5-4.3-1.9c-0.7-1.3-1.4-0.4-1.8,1.2c-0.3,1.7-0.5,2.9-0.5,3.5
		c0,0.6-1.9-0.3-2.7-1.1c-0.8-0.8-1.9,1.4-2.8,0.3c-0.9-1.1,1.1-4.6,1.9-5.9c0.7-1.2,0.4-2.8-3.7-0.9c-1.3,2.2-2.4,5.4-4,10.5
		c-2.3,6.9-7.4,16.3-9.5,19.8c-5.6,8.9-6.6,17.4-5.7,22.6c0.8,5.2,1.5,4.8,2.7,4.8c1.1,0,3.9,3.5,5.8,5.7c1.9,2.2,2.6,1.2,3.5,0.5
		c3-2.3,9-6.2,17.4-10.2c3.6-1.7,8.4-3.5,13.1-5c0.1-1.9,0.5-4.3,0.7-5.2c0.2-1-0.8-1.3-1.9,0c-1,1.3-3.8,4.6-5.7,3.8
		c-1.9-0.8-3.4-2.9-2.4-4.6c1-1.8-0.4-2.3-1.1-3.2c-0.7-0.9-0.7-4.5,1.5-4.9c2.3-0.3,3,1.7,4.5,2.2c1.5,0.5,2.8,0.4,0.8-1.8
		c-2-2.2-4.3-1.3-3.1-4.3c1.2-3,3-2.8,5.1-2.2c2.1,0.6,3.1-0.5,4.4-1.4c1.3-0.9,4-2.2,5.9,0c1.9,2.2-1.3,4.1-2.1,4.9
		c-1.4,1.4-1.6,4-0.1,2.5c1.5-1.5,4.2-7.1,6-2.5c1,2.7-0.9,3.7-0.6,5.4c0.3,1.6,3.1,3.9,0.8,6c-2.3,2.1-5.5,0.3-6.8-0.9
		c-1.3-1.2-2.8-1.9-2.2,0.4c0.5,1.7,0.7,3.4,0.7,4.5c4.5-1.2,8.4-2,10.4-1.8c2.9,0.3,5.2,1.1,5.1-1.6
		C185.3,170.3,183.9,168.5,181.2,164"/>
	<path class="st2" d="M144.6,182.5c-2.5,0.7-2.9-0.4-4.5-1c-1.7-0.6-1.8,0.8-0.6,2.6c1.1,1.8,2.4,3.4,1,3.4c-1.3,0-2.4,0.2-2.6,1.2
		c-0.2,1-2.4-0.2-2.9-2.4c-0.5-2.2-1-6.3-2.2-4.2c-1.1,2.1-2.2,5.5-5.1,3.9c-2.9-1.6-0.9-3.6-2.4-5.1c-1.4-1.4-2.8-3.3-1.3-5.9
		c1.4-2.6,2.7-0.4,4-0.4c1.3,0,1.5-1.2,0.3-2.2c-1.2-0.9-2.8-5.4,2.9-5.1c2.2,0.1,4.5-0.6,6.4-2c1.9-1.3,6.7-0.6,4.7,2.8
		c-2,3.4-1.3,4.1-0.2,2.9c1.1-1.2,2.6-3.5,4.7-2.9c2.2,0.6,1.2,2.3-0.1,4.1c-1.3,1.9-0.5,3.1,0.5,3.8
		C148.4,176.9,150.3,180.8,144.6,182.5"/>
	<path class="st2" d="M155.1,158.2c-1.9,0.1-4.1-0.4-4.1-0.4c-0.2,2-2.1,4.8-4,7.6c-0.2,0.3-1.3,0.3-1.9-0.1c-0.5-0.4-2-1.1-0.8-2.4
		c1.1-1.2,3-3.8,2.7-4.9c-0.3-1.1-1.1-2.2-2.4-0.6c-1.2,1.5-3.2,4.7-5.4,4.9c-2.2,0.1-4.3-1.9-3.3-3.8c1-2,1.3-3-0.1-4.7
		c-1.4-1.8-0.9-4,2.2-5.4c0.9-0.4,2.6,0,3.7,0.9c1.1,0.9,1.8,0,0.2-0.9c-1.5-0.9-2.8-2.1-3-4.1c-0.2-2,1-4,3.7-2.9
		c2.7,1.1,4.3,0.2,5.5-0.7c1.1-0.9,6-2.1,5.3,2.2c-0.5,3.1-2,3.2-2.4,4.8c-0.4,1.7,0.8,0.6,1.5-0.6c0.7-1.2,2.4-6.3,5.8-2.5
		c0.8,0.9,0.5,2.5-0.5,4.2c-1,1.8-0.2,2.8,0.4,3.7C158.8,153.3,160.2,157.9,155.1,158.2"/>
	<polygon class="st0" points="240.2,76.1 243.3,73.9 250.2,84 254.2,81.2 247.2,71.2 250.2,69.1 257.7,79.6 261.7,76.7 250.6,61.1 
		232.3,74.1 242.4,88.4 246.4,85.6 	"/>
	<polygon class="st0" points="253.4,111.3 259.4,108.6 255.3,99.6 269.3,93.8 266.7,88.2 246.9,96.8 	"/>
	<polygon class="st0" points="257,120.8 257.6,126.3 270.9,124.7 271.4,130.5 277.3,130.1 275.7,110.8 269.7,111.2 270.2,119.2 	"/>
	<polygon class="st0" points="257.6,139.6 257.7,146.2 277.2,146.1 277.1,139.5 	"/>
	<path class="st0" d="M266.8,155.5c-3.3-0.6-7.1-0.1-9.9,2c-2.4,1.8-3.6,3.7-4.2,7.1c-0.4,2.1-0.1,4.9,0.6,7.4l5.2-1.7
		c-0.5-1.2-0.7-3-0.2-4.8c1-3.5,3.9-5.1,7.4-4.6c3.7,0.5,5.8,4,5.2,8c-0.3,1.6-1.1,3-2.9,4.1l3.2,3.8c2.6-1.6,4.6-4.7,5-6.9
		c0.7-3.7-0.2-6.3-1.9-9.3C272.6,157.6,269.8,156.1,266.8,155.5"/>
	<path class="st0" d="M263.2,182.7c-2.7-0.7-6.4,2.3-8.2,4c-1,1-4.6,4.6-6.3,4.1c-1.5-0.5-1-2.8-0.5-4.3c0.7-2.2,1.9-4,3.6-5.2
		l-3.2-1.4c-1.6,1.3-3.3,3.4-4,5.6c-0.8,2.5-1.2,5.3-0.8,7.2c0.4,2.4,1.3,3.9,3.9,3.6c2.1-0.2,7.2-3.5,10.2-6.3
		c1.5-1.4,2.8-1.6,3.5-1.2c1.1,0.6,1,2.5,0.6,3.6c-0.5,1.5-1.3,3.9-2.5,4.8l4.4,3c1.8-1.8,2.7-4.5,3.3-7.1
		C268.3,186.9,265,183.2,263.2,182.7"/>
	<path class="st0" d="M238.7,53.2c-0.4-3-2.1-6.5-3.8-8c-2.6-2.3-5.7-2.9-9-2.5c-3.4,0.4-6.5,2.6-8.2,5.1c-1.9,2.7-3,6.5-2.3,9.8
		c0.7,3,1.9,4.8,4.7,6.7c1.8,1.3,4.5,2.1,7,2.5l0.6-5.4c-1.3,0-3-0.6-4.5-1.8c-2.8-2.4-2.9-6.2-1.1-8.6c2.2-3,6-3.7,9.5-1.4
		c1.4,0.9,1.9,2.4,2.1,4.5L238.7,53.2z"/>
	<path class="st0" d="M39.2,165.6c0.1-1.5,0.1-4.2,1.7-4.5c1.5-0.3,2.6,1.2,2.9,2.7c0.5,2.2,1.1,4,0.2,5.9l4.2-0.4
		c0.7-1.9,0.5-4.5,0-6.7c-0.5-2.5-1.3-4.3-3.2-6c-1.8-1.6-3.2-2-5.8-1.5c-1.6,0.3-4.5,3.2-4.6,9c0,1.1-0.3,3.2-1.3,3.2
		c-1.2,0.1-2.2-1.4-2.4-2.6c-0.3-1.6,0.1-5.1,0.7-6.5l-4.4,0c-0.6,2.5-0.9,5.9-0.3,8.5c1.2,5.6,4.6,7.4,7.3,7.1
		C37.1,173.4,38.7,170.4,39.2,165.6"/>
	<polygon class="st0" points="30.5,142 45.9,141.8 45.8,137 30.4,137.2 30.3,130.6 25.4,130.7 25.6,149 30.5,149 	"/>
	<polygon class="st0" points="58.3,93.6 46.4,86.8 46.4,86.7 62.2,86.5 65.9,80.7 46.5,69.5 43.6,74 56.8,82.4 38.8,82.9 36.2,87.7 
		55.3,98.8 	"/>
	<path class="st0" d="M39,123c6.6,0,11.9-5.3,11.9-11.9c0-6.6-5.3-11.9-11.9-11.9c-6.6,0-11.9,5.3-11.9,11.9
		C27.1,117.7,32.4,123,39,123 M39,104.9c3.4,0,6.2,2.8,6.2,6.2c0,3.4-2.8,6.2-6.2,6.2c-3.4,0-6.2-2.8-6.2-6.2
		C32.8,107.7,35.6,104.9,39,104.9"/>
	<path class="st0" d="M58.6,189.6c0-6.6-5.3-11.9-11.9-11.9c-6.6,0-11.9,5.3-11.9,11.9c0,6.6,5.3,11.9,11.9,11.9
		C53.3,201.5,58.6,196.2,58.6,189.6 M46.7,195.8c-3.4,0-6.2-2.8-6.2-6.2c0-3.4,2.8-6.2,6.2-6.2c3.4,0,6.2,2.8,6.2,6.2
		C52.9,193,50.1,195.8,46.7,195.8"/>
	<path class="st0" d="M61,203.2c-1.8,1.6-2.7,5.5-1,8.1c-1.9-0.9-5.7-1.2-7.4,0.3c-4.3,3.7,0.9,9.1,5.2,13.4l6,5.9l15.8-13.1
		l-6.4-7.5C71,207.4,64.7,199.9,61,203.2 M61.8,224c-1.6-1.9-6.3-5.6-4.3-7.5c1.9-1.8,6.6,3.9,7.2,4.6L61.8,224z M69.1,217.4
		l-0.4-0.5c-1.3-1.6-5.8-6.3-3.9-8c1.7-1.6,5.9,3.8,7.1,5.2l0.5,0.6L69.1,217.4z"/>
</g>
</svg>
